<?xml version="1.0" standalone="no"?>
<!DOCTYPE svg PUBLIC "-//W3C//DTD SVG 20010904//EN"
 "http://www.w3.org/TR/2001/REC-SVG-20010904/DTD/svg10.dtd">
<svg version="1.0" xmlns="http://www.w3.org/2000/svg"
 width="1172.000000pt" height="1062.000000pt" viewBox="0 0 1172.000000 1062.000000"
 preserveAspectRatio="xMidYMid meet">
<metadata>
Created by potrace 1.16, written by Peter Selinger 2001-2019
</metadata>
<g transform="translate(0.000000,1062.000000) scale(0.100000,-0.100000)"
fill="#000000" stroke="none">
<path d="M5190 9344 c-1103 -97 -2070 -611 -2759 -1469 -421 -524 -715 -1188
-814 -1837 l-22 -148 -307 0 -308 0 0 -1065 0 -1065 470 0 470 0 56 -112 c552
-1103 1560 -1878 2750 -2117 282 -56 388 -65 769 -65 373 0 469 7 735 58 1201
231 2226 1010 2779 2114 l61 122 495 0 495 0 0 1065 0 1065 -335 0 -335 0 0
29 c0 84 -76 440 -135 636 -120 397 -332 826 -572 1158 -549 763 -1349 1306
-2248 1527 -319 78 -516 102 -890 105 -170 1 -330 1 -355 -1z m805 -334 c732
-111 1362 -413 1903 -912 523 -482 906 -1147 1063 -1843 27 -117 59 -302 59
-337 l0 -28 -891 0 -891 0 7 30 c4 19 3 30 -4 30 -6 0 -11 11 -11 24 0 13 -6
42 -14 64 -8 22 -12 43 -9 46 4 3 2 6 -4 6 -6 0 -20 15 -31 34 l-21 35 -116
-45 c-74 -28 -125 -43 -138 -39 -15 4 -18 3 -9 -3 9 -6 -18 -21 -87 -47 -55
-21 -98 -42 -96 -45 2 -4 -15 -25 -38 -48 -39 -38 -46 -40 -94 -39 l-51 2 65
70 c37 39 75 77 85 87 26 23 155 71 169 62 7 -4 9 -3 5 4 -4 6 14 17 44 27 43
14 53 15 68 3 15 -11 16 -11 4 3 -11 14 -3 20 65 44 43 16 80 29 82 31 2 2 -2
17 -9 34 -8 19 -39 49 -83 80 l-70 50 -44 -40 c-24 -23 -55 -45 -71 -51 -33
-13 -189 -61 -722 -224 -228 -70 -457 -140 -508 -156 -66 -21 -113 -29 -164
-29 -72 0 -120 13 -673 185 -60 19 -249 77 -419 129 -297 91 -392 130 -389
161 1 6 -5 14 -13 18 -9 5 -38 -10 -89 -48 -41 -30 -75 -59 -75 -64 0 -5 -7
-16 -15 -24 -12 -13 13 -25 205 -97 l218 -82 84 -86 83 -87 -49 -3 c-48 -3
-51 -2 -105 52 -54 53 -64 58 -266 134 -115 44 -216 77 -223 74 -7 -2 -11 -7
-8 -9 2 -3 -9 -33 -26 -69 -18 -38 -32 -88 -35 -124 -5 -55 -8 -60 -29 -60
-22 0 -24 4 -24 52 l0 53 -32 -53 -33 -52 -767 0 -768 0 0 29 c0 48 48 296 86
441 231 894 815 1686 1596 2164 397 243 831 404 1279 476 219 35 289 39 604
35 243 -3 326 -7 440 -25z m2828 -3339 c-1 -57 -5 -107 -10 -111 -4 -4 -93
-13 -198 -20 -104 -7 -193 -15 -197 -19 -3 -3 -10 -75 -14 -159 l-7 -153 123
7 123 7 -6 -108 c-3 -59 -8 -109 -9 -111 -2 -2 -57 -7 -122 -13 -64 -5 -119
-11 -121 -13 -1 -1 -6 -74 -10 -160 l-7 -157 48 4 c55 6 324 25 342 25 17 0
17 -204 0 -217 -15 -11 -1216 -96 -1230 -86 -7 3 -8 31 -4 71 l7 65 -56 -56
c-67 -67 -137 -104 -226 -118 -165 -27 -301 37 -356 169 -24 57 -26 171 -10
462 9 146 14 266 13 267 -2 2 -37 -90 -80 -204 l-77 -208 -13 -248 c-7 -136
-17 -252 -22 -256 -5 -5 -62 -12 -126 -16 l-118 -7 1 29 c0 15 6 129 13 253
l13 225 -60 212 c-49 173 -62 209 -73 199 -7 -7 -43 -16 -81 -20 -37 -4 -89
-9 -115 -13 l-48 -6 0 61 c0 50 -4 66 -26 91 -21 25 -34 31 -64 31 -44 0 -95
-36 -112 -79 -5 -14 -18 -183 -28 -375 -16 -298 -17 -354 -5 -382 22 -54 77
-69 135 -39 37 19 58 59 68 127 l7 53 109 8 c59 5 115 6 124 2 35 -13 -9 -192
-68 -273 -135 -182 -438 -211 -570 -55 -21 25 -30 31 -27 18 24 -87 27 -109
20 -116 -9 -9 -220 -28 -239 -22 -5 2 -34 113 -64 246 -67 305 -62 290 -103
282 -17 -4 -34 -9 -36 -11 -2 -2 -10 -120 -18 -261 -15 -291 -12 -283 -93
-283 -26 0 -75 -3 -109 -6 l-61 -7 0 78 0 78 -29 -37 c-38 -47 -90 -89 -144
-115 -34 -16 -66 -20 -172 -22 -119 -3 -135 -1 -178 20 -94 46 -147 151 -147
290 0 126 30 632 40 690 6 30 8 56 6 58 -9 9 -148 -10 -151 -21 -2 -6 -16
-247 -30 -536 -15 -289 -30 -528 -34 -533 -4 -4 -60 -10 -124 -14 l-117 -6 0
64 c0 35 11 269 25 519 14 250 25 465 25 478 0 25 -19 27 -117 16 l-52 -7 5
-56 c8 -77 -24 -671 -41 -753 -33 -163 -161 -283 -331 -310 -127 -19 -233 11
-303 87 -45 49 -51 45 -51 -40 0 -64 6 -61 -142 -70 l-108 -7 0 44 c0 23 9
211 20 417 11 206 18 376 16 378 -4 4 -61 -100 -132 -239 -21 -43 -43 -77 -48
-75 -4 2 -28 50 -53 107 -73 171 -83 193 -88 189 -2 -3 -14 -189 -25 -414 -15
-272 -26 -414 -33 -422 -7 -6 -62 -14 -124 -18 l-113 -7 0 48 c-1 103 63 1249
69 1256 12 13 222 25 236 13 7 -5 43 -85 81 -177 37 -93 70 -168 74 -168 4 0
48 85 98 189 l92 189 62 6 c35 3 90 7 123 8 l60 3 -4 -75 -3 -74 28 34 c48 58
76 80 139 110 131 64 297 57 392 -16 l33 -25 0 33 c0 18 4 39 8 45 5 9 118 20
362 38 195 14 363 25 372 25 13 0 18 -8 18 -30 0 -32 11 -38 29 -16 20 24 126
65 192 75 129 18 240 -18 309 -98 l40 -46 0 66 c0 37 5 72 13 81 9 12 53 18
214 28 214 14 263 11 322 -20 35 -18 94 -75 116 -114 9 -16 15 -11 44 34 105
163 365 220 522 115 46 -32 50 -33 44 -12 -4 12 -9 29 -11 39 -7 24 5 28 128
37 81 6 116 6 124 -3 7 -6 31 -108 55 -226 23 -118 44 -217 46 -219 8 -11 15
12 115 349 17 58 36 110 42 117 6 7 63 14 135 19 104 6 123 4 119 -7 -3 -8 -9
-25 -13 -39 l-8 -24 37 27 c112 86 298 107 416 47 20 -10 53 -36 72 -58 l36
-40 7 69 7 68 41 5 c108 13 196 16 202 7 3 -6 -7 -249 -22 -540 -15 -292 -25
-532 -23 -534 3 -3 77 0 165 7 l160 11 28 535 c16 295 33 539 38 545 9 9 558
55 619 51 l25 -1 -2 -104z m-2887 -1631 c-4 -60 -4 -110 -1 -110 4 0 18 9 32
20 17 13 41 20 72 20 98 0 117 -43 108 -245 -10 -214 -38 -273 -137 -283 -34
-3 -57 0 -73 11 -21 14 -24 13 -33 -1 -7 -10 -31 -17 -74 -20 l-63 -5 6 94 c4
52 11 198 17 324 15 313 10 293 68 298 26 2 56 4 66 5 18 2 18 -4 12 -108z
m-545 0 c-1 -36 -8 -184 -16 -330 -8 -146 -15 -275 -15 -287 0 -18 -7 -22 -61
-28 -33 -4 -64 -3 -68 1 -5 5 0 153 10 329 10 176 18 332 18 347 1 23 6 27 39
31 20 2 50 4 66 3 l30 -1 -3 -65z m-231 27 c40 -26 66 -68 73 -118 8 -52 -3
-62 -72 -67 l-61 -4 0 29 c0 42 -20 65 -55 61 -54 -6 -62 -33 -73 -243 -9
-160 -8 -194 4 -212 30 -47 93 -21 103 43 l6 39 68 3 c76 3 75 4 52 -76 -29
-98 -102 -151 -205 -152 -71 0 -118 24 -148 75 -22 39 -23 45 -17 210 12 310
27 361 124 412 61 32 154 32 201 0z m604 -126 c3 -4 -1 -120 -8 -256 -10 -187
-17 -250 -27 -256 -8 -5 -38 -9 -66 -9 -42 0 -53 3 -53 16 0 13 -4 12 -25 -4
-36 -28 -87 -36 -129 -18 -41 17 -64 49 -68 96 -6 64 14 400 24 406 5 3 36 8
69 11 57 6 59 5 59 -18 0 -13 -5 -95 -10 -183 -10 -171 -6 -196 34 -196 43 0
49 21 60 218 l11 187 55 6 c30 3 58 6 62 7 4 1 9 -2 12 -7z m-2764 -441 l0
-260 644 0 c599 0 645 -1 664 -17 10 -10 59 -72 107 -138 109 -149 234 -301
331 -404 41 -43 74 -84 74 -90 0 -6 5 -11 12 -11 7 0 27 -14 45 -32 l33 -32 0
186 0 186 -73 89 c-94 114 -197 248 -197 257 0 4 21 6 47 4 47 -3 47 -3 132
-113 l86 -110 3 73 c2 60 -1 79 -18 106 -11 18 -20 36 -20 40 0 3 27 6 60 6
l60 0 0 -597 0 -598 23 -40 c14 -26 37 -48 67 -62 43 -22 53 -23 356 -23 193
0 323 4 340 10 31 12 96 69 104 91 3 8 6 285 8 617 l2 602 61 0 61 0 -22 -34
c-17 -29 -20 -47 -18 -111 l3 -77 85 111 85 111 48 0 c36 0 46 -3 41 -12 -15
-25 -99 -135 -181 -235 l-83 -102 0 -188 1 -188 102 105 c148 153 312 354 467
573 l33 47 614 0 613 0 0 260 0 260 425 0 c234 0 425 -3 425 -7 0 -15 -117
-214 -197 -335 -516 -781 -1312 -1331 -2205 -1522 -292 -63 -375 -70 -738 -69
-393 1 -547 17 -851 93 -854 212 -1613 753 -2102 1498 -65 98 -197 324 -197
336 0 3 144 6 320 6 l320 0 0 -260z"/>
<path d="M5146 8570 c-113 -138 -206 -253 -206 -256 0 -3 8 -3 18 1 9 3 60 18
112 32 75 20 128 26 255 30 176 6 281 -7 419 -51 42 -13 73 -19 69 -12 -4 6
-99 122 -211 259 -158 191 -209 247 -227 247 -17 0 -69 -57 -229 -250z"/>
<path d="M4765 8176 c-137 -56 -355 -170 -355 -186 0 -3 78 -28 173 -54 94
-27 181 -52 192 -57 36 -15 609 -179 645 -185 26 -4 98 13 275 66 132 39 269
79 305 89 183 50 470 136 470 141 0 15 -226 132 -356 184 l-91 36 -589 -1
-589 -1 -80 -32z"/>
<path d="M4197 7865 c-148 -80 -161 -93 -165 -171 -2 -32 -7 -61 -10 -64 -10
-7 -9 -130 1 -130 4 0 7 -6 7 -14 0 -8 15 -25 33 -37 49 -34 107 -91 123 -121
18 -35 18 -101 0 -137 -8 -15 -48 -58 -90 -95 -41 -37 -95 -95 -121 -129 -25
-34 -48 -66 -53 -72 -4 -5 -9 -19 -10 -30 -2 -11 -7 -21 -11 -23 -12 -4 6
-120 29 -195 11 -37 18 -72 15 -77 -3 -6 -2 -10 3 -10 5 0 17 -26 26 -57 19
-63 37 -90 77 -116 26 -17 89 -37 1031 -326 l358 -109 692 213 c808 249 733
211 788 395 19 63 38 116 42 118 4 2 4 10 1 18 -3 8 -1 14 5 14 6 0 8 9 5 20
-3 11 -1 20 4 20 15 0 -5 96 -29 144 -28 57 -118 163 -176 211 -59 48 -97 99
-88 120 3 8 1 15 -4 15 -6 0 -10 9 -10 20 0 11 5 20 11 20 6 0 9 7 5 15 -3 8
-1 15 4 15 5 0 7 6 4 14 -3 8 4 20 15 28 12 8 18 17 15 20 -6 6 55 55 102 83
24 13 30 23 26 41 -2 13 0 24 5 24 11 0 14 73 4 80 -4 3 -12 40 -18 84 -14 96
-20 104 -169 185 l-111 61 -562 -164 -563 -164 -546 159 c-301 88 -554 161
-562 164 -8 3 -68 -24 -133 -60z m202 -981 c356 -80 613 -192 729 -318 49 -54
101 -164 87 -185 -3 -6 -1 -11 4 -11 18 0 12 -60 -10 -100 -26 -47 -71 -73
-123 -73 -42 0 -446 142 -541 190 -59 30 -137 102 -170 158 -51 85 -146 319
-140 342 7 29 20 29 164 -3z m2246 3 c6 -21 -65 -199 -126 -319 -26 -51 -102
-133 -152 -165 -60 -38 -526 -205 -573 -206 -52 0 -97 26 -123 73 -22 40 -28
100 -10 100 5 0 7 5 4 11 -4 5 3 37 16 71 68 182 333 326 799 433 137 31 158
31 165 2z"/>
<path d="M3300 7899 c-150 -20 -333 -59 -351 -75 -43 -38 -15 -199 50 -294 66
-96 153 -133 390 -166 192 -27 279 -14 481 71 67 28 107 55 81 55 -11 0 -13
19 -9 93 l5 92 -62 28 c-34 16 -84 48 -111 71 -149 129 -246 155 -474 125z"/>
<path d="M7295 7894 c-50 -16 -104 -51 -199 -127 -28 -23 -77 -54 -109 -67
l-58 -25 7 -77 c3 -46 2 -78 -3 -78 -5 0 -8 -13 -5 -29 3 -23 11 -31 45 -41
23 -7 64 -23 90 -37 68 -34 189 -63 263 -63 35 0 113 7 173 15 219 31 314 69
372 150 18 25 36 45 41 45 5 0 7 3 4 8 -2 4 4 33 15 65 10 31 20 82 20 113 2
84 -6 89 -202 125 -204 37 -381 46 -454 23z"/>
<path d="M3695 6679 c-60 -28 -175 -79 -254 -115 -201 -91 -241 -112 -241
-129 0 -25 58 -145 72 -150 7 -3 73 22 146 55 102 46 162 81 254 150 67 50
134 98 150 108 27 15 29 21 23 52 -4 19 -8 45 -9 58 0 12 -7 22 -16 22 -8 0
-64 -23 -125 -51z"/>
<path d="M7040 6688 c-6 -24 -13 -49 -15 -55 -2 -7 24 -32 58 -55 34 -23 100
-71 147 -107 89 -68 346 -196 373 -185 18 7 81 138 75 156 -5 12 -595 288
-617 288 -6 0 -15 -19 -21 -42z"/>
<path d="M3795 6483 c-101 -70 -161 -119 -250 -204 -38 -36 -80 -69 -92 -73
-12 -4 -28 -23 -36 -43 -13 -35 -13 -38 11 -65 18 -20 35 -28 59 -28 48 0 73
29 73 84 0 44 2 47 80 115 45 38 121 98 170 132 50 35 90 68 90 74 -1 5 -6 22
-13 37 l-12 27 -80 -56z"/>
<path d="M6990 6515 c-5 -14 -10 -32 -10 -38 0 -7 53 -52 118 -100 153 -114
231 -191 216 -214 -8 -12 -7 -25 4 -45 38 -77 142 -58 142 27 0 26 -6 38 -26
52 -15 10 -56 45 -93 78 -80 73 -182 155 -273 219 l-68 48 -10 -27z"/>
<path d="M7218 5444 c-33 -17 -55 -57 -63 -110 -6 -42 -35 -592 -35 -660 0
-85 73 -129 148 -90 35 18 51 47 65 122 l12 59 96 3 97 3 6 77 c3 42 8 136 11
207 3 72 8 156 11 189 6 58 6 59 -17 53 -13 -3 -59 -9 -101 -12 l-78 -7 0 46
c0 113 -68 166 -152 120z"/>
<path d="M5262 5293 c-5 -10 -12 -87 -16 -170 l-7 -153 53 0 c71 0 116 25 146
81 20 38 23 55 20 122 -3 74 -5 80 -36 108 -28 25 -40 29 -92 29 -46 0 -61 -4
-68 -17z"/>
<path d="M4650 5273 c-34 -13 -69 -57 -79 -102 -6 -25 -17 -189 -26 -363 -18
-340 -16 -372 28 -403 51 -36 129 -9 163 57 24 46 59 707 40 753 -23 53 -74
77 -126 58z"/>
<path d="M3336 5159 c-27 -23 -37 -42 -45 -82 -16 -87 -43 -681 -32 -710 33
-86 142 -92 192 -10 19 30 23 67 40 371 19 335 19 393 -4 423 -36 48 -102 51
-151 8z"/>
<path d="M5953 3842 c-22 -14 -32 -59 -35 -161 -2 -82 1 -104 14 -117 21 -22
53 -10 66 24 6 15 13 70 16 122 5 77 3 100 -10 118 -16 23 -31 27 -51 14z"/>
</g>
</svg>
